<?xml version="1.0"?>
<svg xmlns="http://www.w3.org/2000/svg" height="512px" viewBox="0 0 512 512.00096" width="512px" class=""><g><path d="m318.359375 314.289062h-16.714844c-5.523437 0-10-4.476562-10-10 0-5.523437 4.476563-10 10-10h16.714844c5.523437 0 10 4.476563 10 10 0 5.523438-4.476563 10-10 10zm0 0" data-original="#000000" class="active-path" data-old_color="#000000" fill="#F9F9F9"/><path d="m210.355469 314.289062h-16.714844c-5.523437 0-10-4.476562-10-10 0-5.523437 4.476563-10 10-10h16.714844c5.523437 0 10 4.476563 10 10 0 5.523438-4.476563 10-10 10zm0 0" data-original="#000000" class="active-path" data-old_color="#000000" fill="#F9F9F9"/><path d="m429.777344 169.179688c5.523437 0 10-4.476563 10-10 0-5.523438-4.476563-10-10-10h-.007813c-5.523437 0-9.996093 4.476562-9.996093 10 0 5.523437 4.480468 10 10.003906 10zm0 0" data-original="#000000" class="active-path" data-old_color="#000000" fill="#F9F9F9"/><path d="m478.339844 165.328125c-4.429688-3.300781-10.695313-2.386719-13.996094 2.042969-3.300781 4.425781-2.386719 10.695312 2.042969 13.992187 16.039062 11.953125 25.613281 31.058594 25.613281 51.105469 0 36.945312-11.570312 61.089844-32.582031 67.992188-7.105469 2.335937-7.875 7.703124-7.875 9.898437 0 28.445313-23.144531 51.585937-51.589844 51.585937-12.09375 0-23.503906-4.109374-32.691406-11.675781 12.738281-19.148437 19.628906-41.429687 19.628906-64.101562 0-16.84375-3.742187-33.429688-10.917969-48.710938v-40.777343c0-5.878907-1.214844-11.476563-3.40625-16.558594 5.300782-2.40625 10.976563-4.425782 16.957032-6.039063 5.332031-1.4375 8.492187-6.925781 7.054687-12.257812s-6.925781-8.492188-12.257813-7.050781c-8.59375 2.3125-16.699218 5.371093-24.160156 9.109374-7.175781-5.734374-16.269531-9.167968-26.152344-9.167968h-9.503906l-44.390625-28.8125c4.222657-2.269532 8.109375-5.148438 11.546875-8.585938 9.472656-9.46875 14.6875-22.347656 14.6875-36.261718 0-17.1875-8.496094-27.785157-15.988281-37.140626-7.660156-9.5625-14.277344-17.820312-14.121094-33.816406.035157-3.75-2.03125-7.210937-5.355469-8.953125-3.324218-1.746093-7.34375-1.480469-10.410156.6875-9.34375 6.59375-21.113281 20.5-26.230468 38.21875-1.828126-1.484375-4.152344-2.304687-6.5625-2.230469-3.339844.085938-6.414063 1.835938-8.195313 4.664063-6.839844 10.84375-13.828125 23.910156-13.828125 38.574219 0 20.058594 10.203125 36.710937 25.855469 45.09375l-44.011719 28.5625h-9.507812c-10.222657 0-19.609376 3.675781-26.894532 9.777344-19.875-10.425782-41.941406-15.308594-68.863281-15.308594-45.34375-.003906-82.234375 37.359375-82.234375 83.285156 0 29.601562 6.621094 52.65625 19.671875 68.53125 5.933594 7.21875 13.023437 12.6875 21.121094 16.316406 3.507812 36.222656 34.125 64.628906 71.253906 64.628906 16.738281 0 31.621094-5.679687 44.359375-16.90625 3.417969 3.632813 7.15625 7.097657 11.238281 10.425782-5.414062 21.441406-16.308593 38.160156-33.207031 51.003906-3.082031 2.34375-4.554688 6.148438-3.839844 9.929688.722656 3.804687 3.542969 6.835937 7.363282 7.917968 1.339843.378906 3.5625.554688 6.390624.554688 7.992188 0 20.828126-1.421875 32.238282-3.75 16.433594-3.351563 29.703125-8.195313 39.65625-14.453125 5.34375 22.347656 10.441406 59.976562 10.175781 75.15625-.046875 2.683593.984375 5.273437 2.863281 7.183593 1.882813 1.914063 4.453125 2.992188 7.136719 2.992188h43.5c2.667969 0 5.226563-1.066406 7.101563-2.960938 1.878906-1.894531 2.921874-4.460937 2.898437-7.128906-.136719-15.058594 5.128906-48.6875 11.113281-72.234375 12.53125 6.546875 27.242188 10.246094 38.601563 12.300781 5.28125.953126 18.476562 2.902344 27.632812 2.902344 3.375 0 6.199219-.265625 7.882813-.941406 3.421875-1.371094 5.847656-4.460938 6.335937-8.0625.484375-3.59375-1.019531-7.195312-3.925781-9.40625-16.972656-12.898438-27.890625-29.699219-33.273438-51.25 3.648438-2.875 7.203126-5.929688 10.507813-9.300781 12.714844 10.390625 28.464844 16.03125 45.15625 16.03125 37.128906 0 67.746094-28.40625 71.253906-64.628907 8.101563-3.628906 15.1875-9.101562 21.121094-16.316406 13.054687-15.878906 19.671875-38.933594 19.671875-68.535156 0-26.332031-12.585938-51.429688-33.660156-67.140625zm-249.363282-98.582031c2.214844 2.53125 4.84375 4.894531 8.144532 6.816406 3.304687 1.921875 7.417968 1.792969 10.597656-.335938 3.175781-2.128906 4.859375-5.882812 4.339844-9.671874-1.671875-12.109376 2.242187-23.304688 7.625-31.824219 3.714844 10.519531 9.796875 18.113281 15.066406 24.691406 6.730469 8.402344 11.597656 14.472656 11.597656 24.632813 0 17.644531-13.308594 30.949218-30.949218 30.949218-17.234376 0-29.742188-13.015625-29.742188-30.949218 0-4.804688 1.308594-9.601563 3.320312-14.308594zm27.023438 67.351562 47.164062 30.609375-47.164062 30.613281-47.164062-30.613281zm-78.007812 40.617188h9.519531l63.042969 40.914062c1.65625 1.074219 3.550781 1.613282 5.445312 1.613282s3.789062-.539063 5.445312-1.613282l63.042969-40.914062h9.519531c12.109376 0 21.964844 9.851562 21.964844 21.964844v18.304687c-3.582031-1.78125-7.644531-3.449219-12.179687-4.996094-14.027344-4.785156-29.609375-3.542969-42.753907 3.414063-16.308593 8.640625-31.417968 21.886718-45.039062 39.453125-13.621094-17.570313-28.730469-30.8125-45.050781-39.457031-13.136719-6.953126-28.71875-8.195313-42.742188-3.410157-4.535156 1.546875-8.597656 3.214844-12.183593 4.996094v-18.304687c.003906-12.113282 9.855468-21.964844 21.96875-21.964844zm-117.535157 135.644531c0-2.199219-.769531-7.5625-7.875-9.898437-21.011719-6.902344-32.582031-31.046876-32.582031-67.992188 0-34.894531 27.917969-63.289062 62.230469-63.289062 27.410156 0 45.117187 5.863281 56.902343 11.652343-2.003906 4.890625-3.105468 10.242188-3.105468 15.847657v40.777343c-7.175782 15.28125-10.917969 31.867188-10.917969 48.710938 0 22.148437 6.671875 44.1875 18.949219 63.078125-9.296875 8.535156-19.824219 12.699218-32.011719 12.699218-28.445313.003907-51.589844-23.140624-51.589844-51.585937zm106.195313 112.292969c8.054687-10.28125 14.183594-22.011719 18.335937-35.113282 10.535157 6.359376 18.710938 11.359376 24.121094 19.753907-10.382813 8.054687-27.847656 12.84375-42.457031 15.359375zm103.691406 69.347656h-24.246094c-1.546875-24.226562-8.21875-68.332031-15.015625-85.464844-7.578125-19.105468-21.453125-27.480468-36.144531-36.351562-12.304688-7.425782-21.785156-15.5-28.988281-24.679688-13.4375-17.113281-20.839844-38.1875-20.839844-59.335937 0-17.589844 4.960937-34.867188 14.359375-50.070313 2.789062-1.996094 7.53125-4.566406 15.199219-7.179687 8.824219-3.015625 18.644531-2.226563 26.925781 2.152343 16.519531 8.757813 32.460938 24.128907 46.101562 44.453126 1.859376 2.765624 4.972657 4.425781 8.304688 4.425781s6.445312-1.660157 8.304688-4.425781c13.640624-20.324219 29.582031-35.695313 46.09375-44.449219 8.289062-4.382813 18.105468-5.167969 26.9375-2.15625 7.664062 2.613281 12.40625 5.179687 15.191406 7.179687 9.402344 15.203125 14.363281 32.480469 14.363281 50.070313 0 22.863281-8.527344 45.300781-24.011719 63.183593-5.484375 6.335938-12.71875 11.613282-20.378906 17.203126-12.589844 9.183593-25.609375 18.679687-32.984375 34.308593-8.667969 18.371094-17.203125 65.34375-19.171875 91.136719zm36.875-81.761719c.128906-.289062.257812-.570312.386719-.839843 4.054687-8.597657 11.304687-15.121094 19.546875-21.40625 4.148437 12.910156 10.222656 24.484374 18.183594 34.648437-12.589844-2.117187-27.441407-5.9375-38.117188-12.402344zm0 0" data-original="#000000" class="active-path" data-old_color="#000000" fill="#F9F9F9"/></g> </svg>
