<svg height="512pt" viewBox="-75 0 512 512" width="512pt" xmlns="http://www.w3.org/2000/svg"><path d="m109.984375 87.261719c-.648437 0-1.308594-.070313-1.949219-.203125-.640625-.128906-1.269531-.320313-1.871094-.570313-.609374-.25-1.1875-.558593-1.730468-.917969-.546875-.359374-1.058594-.78125-1.519532-1.242187-.460937-.46875-.878906-.976563-1.238281-1.519531-.359375-.546875-.671875-1.128906-.921875-1.730469-.25-.597656-.4375-1.226563-.570312-1.867187-.128906-.652344-.199219-1.300782-.199219-1.949219 0-.660157.070313-1.3125.199219-1.960938.132812-.640625.320312-1.269531.570312-1.871093.25-.601563.5625-1.179688.921875-1.730469.359375-.539063.777344-1.058594 1.238281-1.519531.460938-.460938.972657-.878907 1.519532-1.238282.542968-.363281 1.121094-.671875 1.730468-.921875.601563-.25 1.230469-.441406 1.871094-.570312 1.289063-.257813 2.609375-.257813 3.898438 0 .640625.128906 1.269531.320312 1.882812.570312.597656.25 1.179688.558594 1.71875.921875.550782.359375 1.058594.777344 1.519532 1.238282.460937.460937.878906.980468 1.25 1.519531.359374.550781.671874 1.128906.921874 1.730469.25.601562.4375 1.230468.570313 1.871093.128906.648438.1875 1.300781.1875 1.960938 0 .648437-.058594 1.296875-.1875 1.949219-.132813.640624-.320313 1.269531-.570313 1.867187-.25.601563-.5625 1.183594-.921874 1.730469-.371094.539062-.789063 1.050781-1.25 1.519531-.460938.460937-.96875.882813-1.519532 1.242187-.539062.359376-1.121094.667969-1.71875.917969-.613281.25-1.242187.441407-1.882812.570313-.636719.132812-1.296875.203125-1.949219.203125zm0 0"/><path d="m181.164062 200.964844c-15.320312 0-27.789062-12.464844-27.789062-27.785156 0-15.316407 12.464844-27.78125 27.789062-27.78125 15.324219 0 27.789063 12.464843 27.789063 27.78125 0 15.320312-12.464844 27.785156-27.789063 27.785156zm0-35.566406c-4.292968 0-7.789062 3.492187-7.789062 7.78125 0 4.292968 3.492188 7.785156 7.789062 7.785156 4.296876 0 7.789063-3.492188 7.789063-7.785156 0-4.289063-3.492187-7.78125-7.789063-7.78125zm0 0"/><path d="m246.726562 248.199219c-1.574218 0-3.152343-.371094-4.589843-1.113281l-13.320313-6.886719c-4.90625-2.539063-6.828125-8.570313-4.289062-13.476563 2.535156-4.90625 8.570312-6.828125 13.472656-4.289062l8.726562 4.511718 8.726563-4.511718c4.90625-2.539063 10.941406-.617188 13.476563 4.289062 2.539062 4.90625.617187 10.9375-4.289063 13.476563l-13.320313 6.886719c-1.441406.742187-3.015624 1.113281-4.59375 1.113281zm0 0"/><path d="m115.601562 248.199219c-1.574218 0-3.152343-.371094-4.59375-1.113281l-13.316406-6.886719c-4.90625-2.539063-6.828125-8.570313-4.292968-13.476563 2.539062-4.90625 8.574218-6.828125 13.476562-4.289062l8.726562 4.511718 8.726563-4.511718c4.90625-2.539063 10.941406-.617188 13.476563 4.289062 2.535156 4.90625.617187 10.9375-4.289063 13.476563l-13.320313 6.886719c-1.441406.742187-3.015624 1.113281-4.59375 1.113281zm0 0"/><path d="m340.785156 186.378906v-54.066406c0-48.09375-27.914062-92.296875-71.113281-112.613281-27.789063-13.070313-57.566406-19.699219-88.507813-19.699219-30.9375 0-60.714843 6.628906-88.503906 19.699219-43.203125 20.316406-71.117187 64.519531-71.117187 112.613281v54.066406c-12.808594 6.839844-21.542969 20.34375-21.542969 35.847656v1.265626c0 20.570312 15.371094 37.613281 35.226562 40.257812v30.574219c-.636718.3125-1.246093.691406-1.8125 1.140625-2.3125 1.832031-3.699218 4.589844-3.785156 7.539062-.449218 14.988282 6.238282 26.808594 14.222656 35.515625.554688 30.597657 12.359376 99.367188 37.839844 124.207031l6.671875 6.5c3.875 3.777344 9.191407 5.667969 14.578125 5.171876 4.734375-.433594 9.074219-2.65625 12.179688-6.179688l25.71875 26.65625c10.65625 11.042969 24.976562 17.125 40.324218 17.125 15.347657 0 29.671876-6.082031 40.324219-17.125l25.71875-26.652344c3.058594 3.476563 7.355469 5.675782 12.058594 6.113282 5.492187.515624 10.894531-1.398438 14.839844-5.242188l6.53125-6.367188c25.480469-24.835937 37.285156-93.605468 37.839843-124.207031 7.984376-8.703125 14.671876-20.527343 14.226563-35.511719-.089844-2.953124-1.476563-5.710937-3.789063-7.542968-.566406-.449219-1.175781-.828125-1.808593-1.140625v-30.574219c19.855469-2.644531 35.226562-19.6875 35.226562-40.257812v-1.265626c-.003906-15.503906-8.738281-29.007812-21.546875-35.847656zm-33.679687 4.136719v104.015625c-14.996094-.75-28.402344-7.382812-40.550781-13.394531-26.359376-13.046875-49.125-24.3125-83.375 13.398437l-2.015626 2.214844-2.015624-2.21875c-34.25-37.710938-57.015626-26.441406-83.375-13.398438-12.148438 6.015626-25.550782 12.648438-40.546876 13.394532v-104.011719c0-.3125-.015624-.621094-.042968-.929687 34.601562-31.285157 78.890625-48.382813 125.980468-48.382813 47.089844 0 91.378907 17.097656 125.980469 48.386719-.027343.304687-.039062.613281-.039062.925781zm-255.378907 124.109375c20.941407.25 38.394532-8.375 52.917969-15.566406 25.179688-12.457032 35.597657-17.613282 59.699219 8.921875l9.417969 10.367187c.03125.035156.058593.066406.089843.097656-.125.136719-.246093.273438-.367187.414063l-9.761719 11.703125c-19.328125 23.140625-62.003906 22.003906-89.730468 6.425781-5.792969-3.261719-17.480469-10.980469-22.265626-22.363281zm127.347657 28.753906 2.089843-2.503906 2.089844 2.507812c5.914063 7.082032 13.429688 12.792969 22.160156 16.964844-7.363281 1.074219-15.582031 1.65625-24.25 1.65625-8.667968 0-16.890624-.582031-24.25-1.65625 8.730469-4.171875 16.246094-9.886718 22.160157-16.96875zm19.535156-12.816406-9.765625-11.703125c-.121094-.140625-.242188-.277344-.367188-.410156.03125-.035157.0625-.066407.089844-.101563l9.417969-10.367187c24.101563-26.535157 34.523437-21.378907 59.699219-8.921875 14.527344 7.191406 32.011718 15.8125 52.921875 15.566406-4.789063 11.386719-16.472657 19.101562-22.261719 22.359375-27.734375 15.582031-70.410156 16.71875-89.734375-6.421875zm-97.4375-292.765625c25.105469-11.808594 52.019531-17.796875 79.992187-17.796875 27.976563 0 54.890626 5.988281 79.996094 17.796875 27.6875 13.023437 47.886719 37.765625 55.867188 66.738281-37.546875-32.34375-85.660156-50.445312-135.863282-50.445312-10.28125 0-20.609374.753906-30.707031 2.25-5.460937.808594-9.234375 5.890625-8.429687 11.355468.808594 5.460938 5.890625 9.238282 11.355468 8.425782 9.128907-1.347656 18.476563-2.03125 27.78125-2.03125 53.273438 0 103.949219 22.554687 139.621094 62.015625v38.851562c-38.316406-34.757812-87.414062-53.753906-139.621094-53.753906-52.210937 0-101.304687 18.996094-139.621093 53.753906v-38.851562c10.644531-11.777344 22.730469-22.167969 35.964843-30.921875 4.605469-3.046875 5.871094-9.25 2.824219-13.855469-3.046875-4.609375-9.253906-5.871094-13.855469-2.824219-7.398437 4.890625-14.46875 10.242188-21.171874 16.023438 7.984374-28.96875 28.179687-53.710938 55.867187-66.730469zm-81.171875 185.695313v-1.265626c0-9.503906 6.464844-17.523437 15.226562-19.898437v41.0625c-8.761718-2.371094-15.226562-10.394531-15.226562-19.898437zm246.675781 224.910156-5.453125 5.316406c-2.796875-3.25-6.597656-5.40625-10.878906-6.136719-4.890625-.835937-9.808594.289063-13.847656 3.175781-.5.351563-.960938.753907-1.386719 1.191407l-28.011719 29.039062c-6.851562 7.101563-16.0625 11.011719-25.933594 11.011719-9.871093 0-19.078124-3.910156-25.929687-11.011719l-28.015625-29.035156c-.421875-.441406-.886719-.839844-1.386719-1.195313-4.027343-2.875-8.9375-4.003906-13.8125-3.183593-4.292969.726562-8.109375 2.886719-10.910156 6.148437l-5.457031-5.320312c-15.597656-15.203125-27.167969-60.390625-30.699219-93.558594 15.886719 8.742188 35.183594 13.59375 53.769531 13.59375h.152344c12.902344 8.640625 35.429688 13.566406 62.289062 13.566406 26.855469 0 49.386719-4.925781 62.289063-13.566406 18.621094.027344 37.988281-4.828125 53.925781-13.59375-3.53125 33.167969-15.105468 78.355469-30.703125 93.558594zm75.652344-224.910156c0 9.503906-6.460937 17.523437-15.226563 19.898437v-41.0625c8.765626 2.375 15.226563 10.394531 15.226563 19.898437zm0 0"/></svg>